<?xml version="1.0" standalone="no"?>
<!DOCTYPE svg PUBLIC "-//W3C//DTD SVG 20010904//EN"
 "http://www.w3.org/TR/2001/REC-SVG-20010904/DTD/svg10.dtd">
<svg version="1.0" xmlns="http://www.w3.org/2000/svg"
 width="1024.000000pt" height="1024.000000pt" viewBox="0 0 1024.000000 1024.000000"
 preserveAspectRatio="xMidYMid meet">

<g transform="translate(0.000000,1024.000000) scale(0.100000,-0.100000)"
fill="#FF6F00" stroke="none">
<path d="M0 7470 c0 -1523 2 -2770 5 -2770 10 0 85 73 81 78 -6 5 9 24 49 65
17 16 29 36 27 43 -2 8 4 14 13 14 8 0 15 4 15 10 0 5 13 25 30 43 16 19 30
38 30 41 0 4 4 12 10 19 14 16 80 118 80 123 0 2 11 20 25 40 14 20 22 41 18
47 -3 5 -1 7 5 3 6 -4 24 18 43 54 17 33 36 60 40 60 5 0 9 5 9 11 0 7 10 21
23 33 12 12 28 33 36 48 8 15 18 25 22 23 4 -3 11 5 15 17 7 24 34 55 43 50 3
-2 8 5 9 15 2 10 8 22 13 28 5 5 9 17 9 26 0 9 7 22 15 29 8 7 15 21 15 32 0
10 4 17 9 14 5 -4 7 4 3 16 -3 13 -1 19 5 15 7 -5 9 0 6 13 -3 12 -2 20 3 19
24 -4 33 4 44 36 6 19 16 35 22 35 6 0 8 3 5 6 -4 4 1 14 11 23 9 9 24 29 32
45 8 15 24 32 35 37 13 5 15 8 5 9 -10 0 -11 3 -4 8 6 4 19 21 28 37 10 17 15
22 12 12 -3 -11 -2 -15 4 -12 6 3 10 17 10 31 0 13 4 24 10 24 5 0 12 17 16
38 4 20 9 31 12 24 3 -9 10 -6 23 9 10 12 16 26 12 32 -3 6 -1 7 6 3 6 -4 14
0 18 10 7 19 27 45 54 73 9 9 20 26 23 39 4 12 12 22 17 22 5 0 9 5 9 11 0 5
-6 7 -13 3 -7 -5 -6 0 3 11 42 54 65 75 82 75 10 0 17 3 17 8 -1 4 0 12 1 17
2 6 3 18 4 27 1 10 6 19 11 20 16 3 33 22 28 31 -2 4 3 7 12 7 8 0 20 11 25
25 5 14 14 25 20 25 5 0 10 7 10 15 0 37 49 24 58 -15 15 -64 21 -842 16
-2090 -5 -1124 -4 -1494 6 -1555 25 -172 28 -150 -25 -174 -36 -16 -175 -108
-175 -116 0 -1 24 6 52 16 103 34 174 44 223 31 25 -7 55 -12 68 -12 27 0 85
34 112 66 17 21 33 26 120 34 112 11 687 13 759 4 93 -13 42 -24 -110 -24 -98
0 -163 -4 -177 -12 -46 -24 -110 -78 -93 -78 10 0 14 -4 11 -10 -3 -5 -15 -10
-26 -10 -10 0 -28 -9 -39 -20 -11 -11 -25 -20 -30 -20 -6 0 -10 -4 -10 -10 0
-5 -6 -10 -14 -10 -7 0 -29 -17 -48 -38 -19 -20 -51 -45 -72 -55 -75 -35 -44
-42 195 -45 184 -2 228 0 244 12 30 22 9 35 -55 35 -30 0 -79 0 -108 0 -29 0
-60 5 -69 9 -39 22 91 31 440 31 282 0 362 2 374 13 14 11 10 14 -33 20 -27 3
-101 7 -164 8 -119 2 -264 15 -220 19 38 4 189 0 329 -9 70 -4 130 -3 136 1 5
5 73 9 151 9 94 0 145 4 150 11 3 6 1 15 -6 19 -17 11 16 60 41 60 22 0 26
-39 7 -58 -20 -20 8 -32 75 -32 43 0 62 5 76 19 13 13 16 21 8 24 -17 6 22 47
45 47 24 0 23 -22 -2 -45 -31 -28 -24 -35 29 -35 33 0 51 5 54 14 3 8 23 18
44 22 21 4 43 14 50 23 10 14 15 13 42 -13 17 -16 28 -32 26 -35 -3 -3 -24 -6
-46 -7 -23 -1 -46 -8 -53 -14 -9 -10 4 -11 56 -7 39 4 70 2 73 -3 4 -6 -54
-10 -152 -10 -87 -1 -272 -1 -412 -1 -139 0 -250 -3 -247 -6 3 -3 1 -12 -6
-20 -15 -18 -2 -29 16 -14 16 14 386 12 386 -1 0 -5 14 -8 31 -8 17 0 28 4 24
10 -5 9 307 18 340 10 43 -10 95 -11 95 -2 0 7 -12 10 -28 8 -15 -2 -19 -1 -8
1 10 3 20 13 23 23 4 13 19 20 60 25 62 8 84 0 30 -10 -55 -11 -91 -85 -42
-85 9 0 14 4 11 9 -8 12 302 24 339 13 l30 -9 -30 -14 c-19 -9 -83 -15 -178
-17 -132 -3 -148 -5 -145 -20 3 -15 39 -19 308 -34 373 -20 709 -21 1065 -2
149 7 362 13 475 13 195 0 240 4 240 21 0 4 -69 9 -154 12 -125 3 -158 7 -180
22 -15 10 -30 15 -33 13 -3 -3 9 -13 26 -22 17 -8 31 -17 31 -18 0 -7 -140 -4
-140 4 0 5 -25 9 -55 9 -30 0 -55 2 -55 4 0 3 11 17 25 32 l24 26 265 -4 265
-4 31 -29 c16 -16 30 -35 30 -42 0 -10 31 -13 143 -12 149 1 293 14 212 19
-22 1 -106 3 -187 4 -143 3 -148 3 -173 28 l-25 25 31 7 c50 10 407 7 414 -3
3 -6 18 -6 38 0 17 5 88 10 157 11 114 2 109 3 -60 8 -182 5 -185 5 -188 28
-3 21 -1 22 86 22 72 0 89 3 89 15 0 13 -23 15 -142 15 -115 0 -145 -3 -155
-15 -11 -13 -6 -15 38 -15 42 0 52 -4 66 -24 l16 -25 -224 -1 c-192 0 -224 2
-230 15 -3 8 -16 15 -28 15 -19 0 -20 -2 -8 -10 10 -7 -27 -10 -115 -10 -130
0 -185 10 -129 24 l28 7 -25 13 c-19 10 -26 10 -32 0 -4 -7 -14 -11 -23 -7
-12 4 -11 8 6 20 11 8 26 11 32 7 7 -5 24 -7 39 -6 15 1 32 -5 39 -14 11 -12
35 -15 139 -13 88 2 126 -1 129 -9 5 -17 27 -15 42 3 9 11 36 15 104 16 50 1
81 4 69 6 -13 2 -23 9 -23 14 0 5 -9 9 -19 9 -11 0 -22 3 -24 8 -3 4 45 8 106
9 62 1 117 2 122 2 19 2 -20 21 -42 21 -14 0 -23 6 -23 16 0 11 6 14 23 10 19
-5 19 -5 -3 6 -14 7 -27 16 -30 19 -9 13 -140 13 -152 1 -9 -9 -9 -12 -1 -12
6 0 14 6 16 13 3 7 6 4 6 -6 1 -10 4 -16 9 -14 4 3 14 -2 21 -11 13 -14 12
-15 -7 -10 -12 4 -22 2 -22 -3 0 -5 -15 -1 -34 9 -29 15 -31 18 -17 29 14 11
11 12 -19 13 -26 0 -31 -3 -22 -12 21 -21 14 -48 -10 -48 -19 0 -20 2 -8 10
10 7 -7 10 -57 10 -42 0 -73 4 -73 10 0 6 15 10 34 10 46 0 96 11 96 21 0 5
-7 6 -15 3 -8 -4 -15 -2 -15 3 0 5 17 10 37 11 21 2 42 7 47 12 12 12 53 13
60 1 8 -12 175 -24 189 -13 7 5 25 5 43 1 27 -8 36 -18 62 -71 2 -5 -12 -8
-32 -8 -20 0 -36 -4 -36 -10 0 -6 61 -10 163 -11 174 -1 204 -2 213 -12 14
-14 -9 -25 -46 -22 -22 2 -42 0 -45 -5 -7 -11 2 -12 85 -14 41 -1 55 -5 55
-16 0 -8 13 -28 29 -45 16 -16 35 -40 43 -52 15 -22 21 -23 172 -23 104 0 151
4 141 10 -8 5 -75 10 -148 10 l-133 0 -47 44 c-67 63 -57 69 125 73 143 4 183
-2 169 -26 -9 -14 -292 -15 -301 -1 -3 6 -11 10 -17 10 -6 0 -3 -9 8 -21 19
-21 22 -21 441 -17 l422 5 42 -37 42 -36 -254 4 c-203 3 -252 2 -242 -9 18
-18 1027 -25 1021 -6 -4 9 -65 13 -244 17 -131 3 -246 9 -254 14 -8 5 -23 16
-34 25 -17 15 -17 16 15 22 19 3 96 3 172 1 99 -4 137 -2 137 7 0 6 -8 11 -18
11 -10 0 -23 5 -29 11 -7 7 -15 6 -26 -5 -13 -14 -16 -14 -28 0 -7 8 -19 12
-27 9 -8 -3 -177 -8 -377 -11 -309 -5 -367 -4 -391 9 -26 13 -10 15 197 22
236 7 654 1 702 -11 21 -5 25 -9 15 -15 -10 -6 -9 -11 7 -23 22 -17 95 -22 95
-7 0 11 -101 61 -127 62 -13 1 -11 3 7 10 15 5 -228 6 -584 3 -410 -4 -606 -2
-602 5 4 5 -2 14 -11 20 -34 20 176 18 215 -1 18 -9 28 -9 42 0 11 6 27 9 36
5 13 -5 15 -3 9 7 -6 10 -4 12 11 6 30 -13 127 -19 120 -8 -3 5 6 12 19 15 14
2 28 1 30 -4 6 -8 135 -3 166 6 9 3 20 1 24 -5 3 -5 30 -9 58 -9 29 1 42 4 30
6 -13 2 -23 11 -23 19 0 10 14 14 53 14 37 0 48 -3 37 -10 -8 -5 -10 -10 -5
-10 6 0 4 -4 -4 -9 -17 -11 58 -18 244 -25 l130 -4 -33 29 c-18 16 -37 27 -41
24 -5 -2 -11 4 -14 14 -7 30 -59 51 -143 58 -54 4 -71 9 -60 15 19 11 452 27
716 28 206 0 213 3 229 83 16 81 23 1356 12 2142 -6 385 -13 1175 -16 1755 -6
1251 -11 1483 -32 1553 -11 38 -29 65 -71 106 -71 70 -142 99 -267 111 -49 5
-1071 14 -2270 21 -1199 6 -2205 13 -2235 14 -30 2 -278 4 -550 6 -558 3 -757
9 -697 22 20 4 42 5 47 2 6 -3 10 -1 10 5 0 6 8 10 18 9 47 -4 72 2 73 19 0
14 2 14 9 -3 7 -17 9 -15 9 13 1 28 -2 32 -25 32 -14 0 -23 4 -19 10 4 6 11 8
16 5 5 -4 8 6 8 22 -1 16 -3 21 -6 11 -4 -15 -6 -15 -24 3 -20 20 -26 34 -9
24 6 -4 10 6 11 22 l1 28 8 -25 c6 -20 8 -16 9 23 1 38 5 50 19 54 13 3 19 15
21 44 1 22 6 50 12 62 9 21 9 20 6 -5 -2 -15 0 -33 4 -40 6 -8 9 4 10 32 1 58
13 96 27 92 8 -1 12 21 12 70 0 40 4 68 8 62 4 -7 16 0 32 20 13 17 17 25 7
17 -15 -12 -17 -10 -17 23 0 21 4 35 9 32 5 -4 8 20 6 56 -2 35 -1 56 1 46 8
-28 32 -30 26 -2 -2 14 0 24 7 24 6 0 11 3 10 8 -1 4 2 18 6 30 6 18 10 20 16
10 5 -8 9 12 9 50 0 34 4 62 10 62 6 0 10 23 10 50 0 33 4 50 13 50 8 0 7 4
-3 11 -12 9 -11 10 5 6 26 -5 52 20 36 36 -14 14 -15 30 -1 22 17 -10 11 5
-11 28 -19 20 -19 22 -3 26 24 4 53 41 53 66 0 19 0 19 -13 2 -12 -16 -14 -16
-20 -1 -8 21 -8 34 2 33 19 -3 32 2 32 14 0 7 9 20 19 29 18 16 20 16 24 0 3
-12 5 -10 6 6 1 20 -10 27 -39 24 -13 -1 -8 37 6 49 16 13 19 39 4 39 -6 0 -8
11 -4 25 5 20 3 24 -10 19 -13 -5 -16 1 -16 31 0 20 4 34 8 31 4 -2 13 4 20
14 7 11 8 21 2 25 -5 3 -7 12 -4 20 4 9 -1 14 -13 13 -27 -1 -44 5 -64 24 -10
9 -27 15 -39 13 -11 -2 -20 0 -20 6 0 5 -583 9 -1540 9 l-1540 0 0 -2770z
m3193 2445 c4 -8 2 -17 -3 -20 -6 -4 -10 3 -10 14 0 25 6 27 13 6z m-18 -135
c-3 -5 -12 -10 -18 -10 -7 0 -6 4 3 10 19 12 23 12 15 0z m-79 -236 c-4 -9 -9
-15 -11 -12 -3 3 -3 13 1 22 4 9 9 15 11 12 3 -3 3 -13 -1 -22z m-109 -296
c-3 -8 -6 -5 -6 6 -1 11 2 17 5 13 3 -3 4 -12 1 -19z m-107 -399 c0 -5 -4 -9
-10 -9 -5 0 -10 7 -10 16 0 8 5 12 10 9 6 -3 10 -10 10 -16z m5571 -676 c15
-7 30 -20 34 -30 4 -10 11 -434 15 -943 8 -838 21 -2085 35 -3300 3 -250 8
-521 11 -601 6 -141 6 -147 -14 -158 -23 -12 -2253 -16 -2551 -5 -143 6 -171
5 -171 -7 0 -12 -2 -12 -9 0 -5 8 -24 14 -43 13 -38 -1 -50 5 -66 33 -11 18
-12 18 -6 -6 5 -24 3 -26 -20 -24 -18 2 -31 -4 -41 -18 -12 -17 -15 -18 -15
-5 0 9 5 18 10 20 7 2 7 15 0 37 -7 24 -6 39 1 48 9 10 7 13 -6 13 -13 0 -16
6 -11 24 4 15 1 26 -7 29 -18 6 -4 17 26 19 17 2 28 9 31 24 9 34 -3 55 -28
50 -19 -3 -22 0 -18 25 2 16 9 29 14 29 5 0 6 5 3 10 -4 6 -11 8 -16 5 -5 -4
-9 -1 -9 4 0 6 4 11 10 11 5 0 6 8 3 17 -5 12 -2 15 10 10 21 -8 21 -3 2 17
-8 8 -12 22 -9 30 10 26 21 10 29 -40 3 -25 9 -43 12 -41 10 11 -9 107 -22
107 -14 0 -25 43 -25 96 0 18 -5 36 -11 40 -9 5 -10 -4 -5 -32 5 -28 4 -35 -3
-24 -9 13 -11 13 -11 -2 0 -9 4 -19 9 -22 5 -3 7 -15 4 -25 -3 -10 0 -22 5
-25 11 -6 4 -46 -7 -46 -4 0 -12 17 -17 37 -9 37 -34 58 -34 28 0 -9 -5 -13
-10 -10 -6 4 -8 16 -4 27 4 14 2 18 -5 14 -7 -4 -11 1 -11 13 0 25 -9 27 -24
5 -10 -13 -12 -9 -14 20 -2 24 2 36 10 36 9 0 10 3 2 8 -6 4 -14 23 -17 42
l-7 35 16 -25 c9 -15 13 -17 10 -6 -4 10 -2 24 3 30 6 8 6 17 -1 26 -8 12 -9
12 -4 -2 3 -10 1 -18 -4 -18 -6 0 -10 9 -10 20 0 11 -4 20 -10 20 -5 0 -10
-11 -10 -24 0 -14 -5 -28 -11 -32 -6 -3 -9 -18 -6 -33 5 -22 -9 -69 -14 -51
-2 6 -7 39 -13 94 -3 21 -8 41 -11 44 -8 9 -6 -58 3 -76 5 -9 6 -28 1 -42 -4
-14 -7 -19 -8 -12 -1 6 -5 12 -11 12 -6 0 -6 -9 0 -26 6 -14 9 -37 9 -52 -1
-27 -1 -27 -8 3 -5 24 -8 26 -13 13 -4 -10 -4 -25 -1 -35 4 -10 2 -14 -4 -10
-10 6 -23 59 -24 100 0 9 -4 17 -10 17 -13 0 -11 -48 2 -52 7 -2 5 -9 -5 -17
-14 -12 -16 -9 -16 22 0 44 -10 97 -19 97 -4 0 -5 -27 -3 -60 2 -33 0 -60 -5
-60 -5 0 -10 15 -11 33 -3 55 -13 107 -21 107 -4 0 -7 -9 -7 -20 0 -11 4 -20
8 -20 14 0 8 -84 -8 -110 l-15 -25 5 33 c4 20 2 31 -4 27 -6 -3 -10 -12 -10
-20 0 -8 -5 -17 -12 -21 -6 -4 -8 -3 -5 3 3 5 2 25 -3 44 -10 37 -18 100 -20
164 -1 28 -4 35 -9 21 -6 -15 -9 -11 -19 21 -7 22 -12 48 -12 57 0 9 -5 16
-11 16 -5 0 -8 4 -5 9 3 5 -1 11 -9 15 -10 4 -15 -1 -16 -17 0 -21 -1 -21 -8
-2 -7 17 -8 15 -13 -10 -7 -36 -2 -154 6 -162 3 -4 6 4 6 17 0 29 5 24 14 -12
9 -38 -18 -38 -32 0 -14 36 -23 154 -11 146 5 -3 9 2 9 10 0 8 -4 17 -8 20 -5
3 -10 56 -11 118 -8 406 -32 686 -61 696 -6 2 -10 8 -10 13 0 4 7 6 15 3 8 -4
15 -2 15 4 0 5 -6 12 -14 15 -9 3 -14 23 -14 54 -1 34 1 44 8 33 8 -12 10 -10
10 8 0 13 -4 20 -10 17 -5 -3 -10 1 -10 10 0 9 4 14 9 11 5 -3 11 5 13 18 4
19 1 23 -11 19 -12 -3 -12 -2 2 7 20 13 25 90 5 90 -33 -1 -37 -17 -42 -170
-3 -85 -8 -200 -11 -255 -6 -101 -16 -642 -15 -790 0 -71 -16 -175 -19 -120
-1 15 -3 17 -10 7 -6 -10 -10 -7 -15 12 -8 34 3 78 18 69 8 -5 8 -3 -1 8 -13
16 -13 17 -13 56 0 20 -3 24 -11 16 -6 -6 -11 -46 -10 -92 1 -52 -3 -80 -9
-76 -6 3 -10 18 -10 32 0 15 -3 23 -7 20 -7 -8 -11 -33 -13 -97 -1 -39 -3 -42
-11 -22 -5 13 -7 27 -5 30 2 4 7 37 10 74 9 81 -2 109 -20 52 l-12 -39 5 47
c5 44 4 46 -16 41 -11 -3 -21 -10 -21 -15 0 -6 7 -8 15 -4 19 7 19 -2 0 -47
-14 -34 -16 -70 -3 -82 7 -8 -3 -54 -13 -61 -10 -6 -11 0 -13 73 0 28 2 49 7
46 4 -2 7 10 7 26 0 17 -4 31 -9 31 -15 0 -21 -42 -21 -157 0 -62 -3 -113 -6
-113 -10 0 -34 29 -34 42 -1 8 -6 6 -15 -6 -17 -23 -26 -17 -29 18 0 14 -5 26
-9 26 -16 0 -1 23 16 26 12 2 17 -5 17 -24 0 -38 9 -22 15 29 3 24 8 52 11 63
4 13 3 16 -6 11 -10 -6 -11 -1 -6 21 5 21 4 25 -4 14 -5 -8 -10 -28 -11 -45
-1 -29 -1 -30 -9 -5 l-8 25 -1 -25 c-2 -40 -17 -56 -25 -28 -7 21 -8 20 -21
-17 -12 -36 -14 -38 -20 -18 -4 13 -12 20 -17 17 -6 -4 -8 26 -5 82 4 60 3 78
-3 54 -5 -19 -13 -36 -19 -38 -6 -2 -11 -11 -11 -20 0 -15 2 -15 11 -2 8 12 9
11 6 -5 -2 -11 -8 -19 -13 -18 -5 1 -9 -15 -7 -35 2 -29 1 -33 -6 -17 -13 27
-13 92 -1 100 10 6 9 40 -3 51 -3 3 -9 -7 -12 -22 -4 -16 -10 -40 -15 -55 -5
-17 -3 -31 7 -45 9 -12 12 -30 8 -53 -6 -32 -5 -34 11 -20 16 13 17 12 11 -4
-4 -10 -7 -27 -7 -38 0 -28 -29 -23 -36 6 -3 14 -4 40 -1 58 3 18 3 26 0 20
-11 -28 -20 -10 -13 27 4 22 4 40 0 40 -10 0 -20 -63 -20 -129 0 -48 -2 -52
-16 -40 -15 12 -16 9 -13 -29 5 -49 1 -51 -25 -15 -19 26 -19 26 0 20 17 -6
17 -6 3 5 -9 7 -14 20 -12 28 3 11 0 10 -11 -3 -14 -18 -14 -18 -19 0 -3 12
-5 9 -6 -9 -1 -18 -7 -28 -17 -28 -11 0 -14 -6 -8 -22 3 -13 11 -28 16 -35 14
-17 38 -4 38 20 0 11 3 17 7 13 4 -4 6 -27 4 -52 -2 -33 1 -44 9 -39 6 4 9 13
7 20 -3 6 3 19 14 28 23 20 23 19 3 -21 -12 -24 -13 -36 -4 -54 11 -23 11 -23
-6 -3 -16 20 -16 19 -10 -7 4 -17 2 -28 -4 -28 -5 0 -10 5 -10 11 0 5 -5 7
-12 3 -8 -5 -9 -2 -5 10 9 22 -2 68 -14 60 -5 -3 -6 -16 -3 -30 8 -30 -4 -32
-16 -1 -8 21 -9 21 -9 -5 -1 -16 4 -28 9 -28 6 0 10 -21 10 -47 0 -45 0 -46
-20 -28 -15 14 -17 22 -9 38 8 14 8 27 0 44 -7 14 -9 34 -6 44 4 11 2 19 -4
19 -6 0 -11 -12 -11 -27 0 -25 0 -26 -20 -8 -21 19 -26 50 -10 60 6 3 10 -4
10 -16 0 -22 1 -22 13 -4 8 10 19 15 25 11 14 -8 15 10 2 39 -8 19 -9 19 -9
-2 -1 -13 -5 -23 -9 -23 -13 0 -32 23 -32 40 0 13 1 13 10 0 9 -13 11 -13 20
0 5 9 6 16 0 18 -5 2 -6 10 -3 18 3 8 0 14 -6 14 -6 0 -8 7 -5 15 4 8 1 15 -5
15 -6 0 -14 -12 -17 -27 -4 -16 -12 -31 -18 -35 -8 -6 -8 -8 1 -8 7 0 11 -21
11 -57 0 -32 1 -69 2 -83 1 -23 2 -23 10 -5 9 20 9 20 9 0 1 -11 -9 -29 -21
-40 -14 -11 -18 -20 -11 -22 7 -3 9 -11 6 -19 -3 -7 2 -17 11 -20 9 -3 16 -10
16 -16 0 -5 -4 -7 -9 -4 -13 8 -21 -47 -9 -61 7 -9 7 -13 -2 -13 -6 0 -10 -6
-7 -12 2 -7 0 -24 -4 -38 l-9 -25 18 22 19 22 1 -29 c0 -20 -4 -29 -16 -30 -9
0 -152 -2 -317 -4 -165 -1 -361 -3 -435 -5 -74 -1 -491 -2 -927 -2 -734 1
-793 2 -809 18 -16 16 -16 133 -10 1943 4 1059 11 2175 16 2480 9 533 10 556
29 571 25 21 244 27 1276 35 435 4 792 9 795 11 3 3 1027 3 2275 1 1621 -3
2277 -8 2296 -15z m-3326 -4257 c4 -29 -21 -43 -28 -16 -3 12 0 17 8 13 10 -3
12 2 8 19 -3 13 -2 20 2 16 4 -4 9 -18 10 -32z m19 -68 c9 -34 7 -45 -4 -28
-8 13 -10 13 -10 1 0 -13 -2 -13 -12 -2 -10 11 -10 14 0 18 6 3 12 9 12 14 0
6 -4 7 -10 4 -5 -3 -10 -1 -10 4 0 21 28 11 34 -11z m23 -50 c-3 -8 -6 -5 -6
6 -1 11 2 17 5 13 3 -3 4 -12 1 -19z m-38 -37 c-6 -18 -13 -30 -15 -28 -2 2 1
18 7 36 6 18 13 30 15 28 2 -2 -1 -18 -7 -36z m-329 -26 c0 -8 -4 -15 -10 -15
-5 0 -7 7 -4 15 4 8 8 15 10 15 2 0 4 -7 4 -15z m370 -20 c0 -5 -5 -3 -10 5
-5 8 -10 20 -10 25 0 6 5 3 10 -5 5 -8 10 -19 10 -25z m-304 9 c-3 -9 -6 -30
-7 -47 -1 -30 -1 -30 -8 -7 -9 30 -2 70 11 70 6 0 7 -7 4 -16z m-196 -4 c0 -5
-4 -10 -10 -10 -5 0 -10 5 -10 10 0 6 5 10 10 10 6 0 10 -4 10 -10z m207 -52
c-3 -8 -6 -5 -6 6 -1 11 2 17 5 13 3 -3 4 -12 1 -19z m32 -68 c-6 -11 -8 -8
-9 13 0 15 -6 27 -12 28 -10 0 -10 2 0 6 6 2 13 14 13 26 1 12 5 4 9 -18 4
-22 4 -47 -1 -55z m544 83 c-7 -2 -13 -20 -13 -38 0 -19 -5 -37 -11 -41 -8 -4
-9 0 -4 15 3 11 2 21 -3 21 -5 0 -12 9 -15 20 -3 11 -2 18 2 16 4 -3 13 -1 21
5 8 5 20 8 25 8 6 0 4 -3 -2 -6z m-660 -23 c3 -11 1 -23 -4 -26 -5 -3 -9 6 -9
20 0 31 6 34 13 6z m-326 -12 c-3 -8 -6 -5 -6 6 -1 11 2 17 5 13 3 -3 4 -12 1
-19z m78 -10 c-3 -18 -3 -27 1 -20 13 28 20 9 10 -33 -8 -33 -12 -41 -18 -28
-9 23 -10 77 -2 97 10 26 14 18 9 -16z m225 22 c0 -5 -2 -10 -4 -10 -3 0 -8 5
-11 10 -3 6 -1 10 4 10 6 0 11 -4 11 -10z m-151 -44 c-9 -8 -10 -7 -5 7 3 10
7 24 7 30 1 7 3 4 6 -7 3 -10 -1 -23 -8 -30z m246 5 c-3 -6 -11 -11 -16 -11
-5 0 -4 6 3 14 14 16 24 13 13 -3z m250 9 c3 -5 1 -10 -4 -10 -6 0 -11 5 -11
10 0 6 2 10 4 10 3 0 8 -4 11 -10z m-648 -22 c-3 -8 -6 -5 -6 6 -1 11 2 17 5
13 3 -3 4 -12 1 -19z m871 -5 c5 -16 6 -37 1 -48 -7 -18 -8 -17 -7 5 0 14 -3
35 -7 48 -10 32 1 27 13 -5z m-551 -23 c1 -22 -2 -40 -7 -40 -5 0 -8 18 -8 40
0 22 3 40 7 40 4 0 7 -18 8 -40z m20 8 c-3 -7 -5 -2 -5 12 0 14 2 19 5 13 2
-7 2 -19 0 -25z m313 6 c0 -8 -5 -12 -10 -9 -6 4 -8 11 -5 16 9 14 15 11 15
-7z m-600 -14 c0 -11 -4 -20 -8 -20 -4 0 -8 9 -9 20 -1 11 2 20 8 20 5 0 9 -9
9 -20z m-70 -30 c0 -13 -1 -13 -10 0 -5 8 -10 22 -10 30 0 13 1 13 10 0 5 -8
10 -22 10 -30z m720 26 c0 -3 -4 -8 -10 -11 -5 -3 -10 -1 -10 4 0 6 5 11 10
11 6 0 10 -2 10 -4z m267 -28 c-3 -8 -6 -5 -6 6 -1 11 2 17 5 13 3 -3 4 -12 1
-19z m-20 -30 c-3 -7 -5 -2 -5 12 0 14 2 19 5 13 2 -7 2 -19 0 -25z m87 17 c3
-8 1 -15 -4 -15 -6 0 -10 7 -10 15 0 8 2 15 4 15 2 0 6 -7 10 -15z m-294 -5
c0 -5 -5 -10 -11 -10 -5 0 -7 5 -4 10 3 6 8 10 11 10 2 0 4 -4 4 -10z m-720
-14 c0 -3 -4 -8 -10 -11 -5 -3 -10 -1 -10 4 0 6 5 11 10 11 6 0 10 -2 10 -4z
m287 -18 c-3 -8 -6 -5 -6 6 -1 11 2 17 5 13 3 -3 4 -12 1 -19z m658 3 c-3 -6
-11 -11 -16 -11 -5 0 -4 6 3 14 14 16 24 13 13 -3z m126 -18 c-12 -20 -14 -14
-5 12 4 9 9 14 11 11 3 -2 0 -13 -6 -23z m-991 13 c0 -3 -4 -8 -10 -11 -5 -3
-10 -1 -10 4 0 6 5 11 10 11 6 0 10 -2 10 -4z m943 -26 c-3 -10 1 -33 8 -49
14 -30 14 -30 26 -8 12 21 12 21 13 2 1 -19 1 -19 11 -1 8 13 8 20 0 25 -8 5
-7 13 3 26 12 17 13 13 11 -29 -1 -28 -7 -51 -16 -57 -11 -7 -11 -9 4 -9 9 0
17 -8 17 -17 0 -13 -3 -14 -12 -5 -7 7 -19 12 -27 11 -11 0 -12 -2 -3 -6 17
-7 15 -23 -3 -23 -8 0 -15 5 -15 11 0 6 -9 9 -19 6 -12 -3 -22 1 -25 9 -3 8 1
14 9 14 8 0 15 5 15 11 0 6 -7 9 -15 5 -17 -6 -19 2 -5 24 8 12 10 12 10 1 0
-8 3 -12 6 -9 3 4 1 22 -4 42 -7 25 -7 36 1 40 7 2 13 5 14 5 0 1 -1 -8 -4
-19z m-948 -10 c3 -5 1 -10 -4 -10 -6 0 -11 5 -11 10 0 6 2 10 4 10 3 0 8 -4
11 -10z m-85 -4 c0 -3 -4 -8 -10 -11 -5 -3 -10 -1 -10 4 0 6 5 11 10 11 6 0
10 -2 10 -4z m298 -21 c-3 -3 -9 2 -12 12 -6 14 -5 15 5 6 7 -7 10 -15 7 -18z
m-291 -17 c-3 -8 -6 -5 -6 6 -1 11 2 17 5 13 3 -3 4 -12 1 -19z m43 -29 c0
-25 4 -38 10 -34 6 4 8 15 5 25 -6 20 10 36 20 20 3 -5 0 -10 -7 -10 -10 0
-10 -2 1 -9 12 -8 11 -15 -7 -43 -15 -22 -22 -27 -22 -15 0 9 -7 17 -15 17 -8
0 -15 2 -15 4 0 2 -3 12 -6 20 -4 11 -2 15 8 11 11 -5 14 1 10 25 -2 18 0 30
7 30 6 0 11 -17 11 -41z m-83 -1 c-3 -8 -6 -5 -6 6 -1 11 2 17 5 13 3 -3 4
-12 1 -19z m937 6 c3 -8 2 -12 -4 -9 -6 3 -10 10 -10 16 0 14 7 11 14 -7z
m-991 -26 c3 -10 0 -18 -8 -18 -7 0 -15 8 -17 18 -3 11 0 19 8 19 7 0 15 -9
17 -19z m907 -43 c0 -17 -28 -27 -36 -13 -4 7 -3 8 4 4 8 -5 12 1 12 16 0 18
-2 20 -10 8 -5 -8 -10 -10 -10 -4 0 18 13 24 27 13 7 -6 13 -17 13 -24z m-830
9 c0 -8 -5 -12 -10 -9 -6 4 -8 11 -5 16 9 14 15 11 15 -7z m127 -16 c-3 -8 -6
-5 -6 6 -1 11 2 17 5 13 3 -3 4 -12 1 -19z m-207 -8 c0 -5 -5 -10 -11 -10 -5
0 -7 5 -4 10 3 6 8 10 11 10 2 0 4 -4 4 -10z m247 -12 c-3 -8 -6 -5 -6 6 -1
11 2 17 5 13 3 -3 4 -12 1 -19z m923 7 c18 0 23 -44 7 -63 -8 -10 -7 -16 2
-21 10 -6 9 -10 -4 -15 -9 -3 -13 -10 -10 -16 3 -5 1 -10 -4 -10 -6 0 -11 5
-11 10 0 6 -6 10 -14 10 -8 0 -17 6 -19 13 -3 6 -6 1 -7 -13 -1 -24 -1 -24
-12 -5 -6 11 -16 23 -21 26 -5 4 0 16 12 28 11 11 18 27 15 36 -6 15 36 39 46
26 3 -3 12 -6 20 -6z m-1196 -72 c5 -5 5 8 1 27 -7 31 -6 33 9 21 9 -7 16 -20
16 -28 0 -12 3 -13 13 -4 10 8 17 7 25 -1 18 -18 15 -43 -8 -63 -11 -10 -20
-13 -20 -7 0 7 5 12 12 12 6 0 9 3 6 6 -4 3 -15 1 -27 -5 -12 -7 -22 -7 -26
-1 -3 5 -14 1 -25 -10 -11 -11 -24 -20 -30 -20 -14 0 -12 27 3 33 7 3 5 6 -5
6 -14 1 -16 8 -12 34 3 17 6 39 6 47 2 32 23 29 39 -5 9 -19 19 -38 23 -42z
m116 67 c0 -5 -5 -10 -11 -10 -5 0 -7 5 -4 10 3 6 8 10 11 10 2 0 4 -4 4 -10z
m297 -12 c-3 -8 -6 -5 -6 6 -1 11 2 17 5 13 3 -3 4 -12 1 -19z m-347 2 c8 -5
12 -10 8 -11 -37 -7 -52 -3 -43 12 8 11 16 11 35 -1z m1017 -52 c-3 -7 -5 -2
-5 12 0 14 2 19 5 13 2 -7 2 -19 0 -25z m-911 -8 c9 0 12 -4 9 -10 -12 -19
-35 -10 -34 13 0 12 3 16 6 10 2 -7 11 -13 19 -13z m814 0 c0 -5 -5 -10 -11
-10 -5 0 -7 5 -4 10 3 6 8 10 11 10 2 0 4 -4 4 -10z m-850 -16 c0 -8 -5 -12
-10 -9 -6 4 -8 11 -5 16 9 14 15 11 15 -7z m927 -6 c-3 -8 -6 -5 -6 6 -1 11 2
17 5 13 3 -3 4 -12 1 -19z m-1132 -87 c3 -5 2 -12 -3 -15 -5 -3 -9 1 -9 9 0
17 3 19 12 6z m1315 -31 c0 -5 -5 -10 -11 -10 -5 0 -7 5 -4 10 3 6 8 10 11 10
2 0 4 -4 4 -10z m3186 -137 c-4 -11 -10 -11 -26 -3 -25 13 -29 87 -5 96 8 3
18 16 22 27 6 16 9 3 11 -42 2 -35 1 -70 -2 -78z m-5426 -225 c0 -22 -17 -40
-32 -36 -12 2 -13 9 -7 26 9 23 39 31 39 10z m4384 -3 c7 -20 -41 -24 -124 -8
-33 6 -34 6 -10 13 47 15 127 11 134 -5z m-4925 -11 c8 -7 -14 -24 -37 -29
-25 -4 -37 9 -28 32 5 11 13 13 34 8 15 -4 29 -9 31 -11z m389 -2 c2 -7 -2
-10 -12 -6 -9 3 -16 11 -16 16 0 13 23 5 28 -10z m2672 2 c0 -2 -9 -4 -21 -4
-11 0 -18 4 -14 10 5 8 35 3 35 -6z m1001 5 c14 -7 18 -16 14 -30 -5 -15 -2
-19 18 -19 14 0 27 -7 30 -15 5 -11 30 -15 109 -18 l103 -3 -113 0 c-61 1
-112 -2 -112 -6 0 -5 -7 -8 -16 -8 -8 0 -12 5 -8 11 4 8 -3 9 -27 4 -31 -7
-32 -7 -15 10 16 17 16 18 -1 30 -10 7 -39 18 -63 24 -44 10 -44 10 -7 8 25
-2 37 1 37 10 0 16 24 17 51 2z m489 1 c11 -7 5 -10 -22 -10 -21 0 -38 5 -38
10 0 13 40 13 60 0z m-3690 -12 c0 -4 -9 -8 -20 -8 -11 0 -20 4 -20 8 0 4 9 8
20 8 11 0 20 -4 20 -8z m438 -38 c8 19 11 21 11 7 1 -29 -20 -62 -29 -47 -6 9
-10 7 -15 -9 -3 -11 -10 -21 -15 -21 -5 0 -3 19 5 41 8 23 16 51 16 63 1 11 5
3 9 -19 6 -39 7 -39 18 -15z m1836 35 c-10 -8 -23 -14 -29 -14 -5 0 -1 6 9 14
11 8 24 15 30 15 5 0 1 -7 -10 -15z m677 -1 c11 -13 7 -15 -36 -12 -27 2 -50
8 -53 16 -6 18 72 16 89 -4z m457 1 c3 -3 -33 -5 -79 -4 -57 1 -76 4 -59 9 25
8 129 4 138 -5z m142 5 c11 -7 3 -10 -28 -10 -26 0 -41 4 -37 10 8 13 45 13
65 0z m557 4 c-3 -3 -12 -4 -19 -1 -8 3 -5 6 6 6 11 1 17 -2 13 -5z m-3947
-14 c13 -8 13 -10 -2 -10 -9 0 -25 -3 -35 -7 -16 -6 -16 -5 -4 10 16 20 20 20
41 7z m1876 -3 c8 3 14 0 14 -6 0 -13 -36 -15 -44 -2 -3 4 -2 11 2 15 3 4 8 3
10 -3 2 -5 10 -7 18 -4z m361 -1 c0 -7 -23 -11 -58 -11 -57 0 -68 10 -19 17
48 7 77 5 77 -6z m660 8 c-3 -3 -12 -4 -19 -1 -8 3 -5 6 6 6 11 1 17 -2 13 -5z
m-1272 -24 c0 -7 -7 -15 -15 -17 -13 -4 -13 -3 0 6 13 10 13 12 0 22 -13 9
-13 10 0 6 8 -2 15 -10 15 -17z m408 0 c-14 -6 -32 -6 -45 0 -19 7 -15 9 22 9
37 0 41 -2 23 -9z m-2610 -7 c-7 -2 -19 -2 -25 0 -7 3 -2 5 12 5 14 0 19 -2
13 -5z m-763 -13 c0 -5 -4 -10 -10 -10 -5 0 -7 -7 -4 -15 8 -20 -20 -20 -36 0
-10 12 -8 16 11 24 32 13 39 13 39 1z m1642 -22 c-8 -8 -9 -4 -5 13 4 13 8 18
11 10 2 -7 -1 -18 -6 -23z m48 12 c-6 -11 -13 -20 -16 -20 -2 0 0 9 6 20 6 11
13 20 16 20 2 0 0 -9 -6 -20z m1500 -1 c0 -11 -21 -12 -46 -2 -16 6 -16 7 2
13 22 8 44 2 44 -11z m200 1 c10 -18 8 -20 -20 -20 -32 0 -38 8 -18 28 17 17
26 15 38 -8z m84 9 c3 -2 -4 -10 -14 -17 -12 -7 -20 -8 -20 -2 0 5 -7 10 -15
10 -8 0 -15 4 -15 9 0 9 55 10 64 0z m-2504 -9 c0 -5 -5 -10 -11 -10 -5 0 -7
5 -4 10 3 6 8 10 11 10 2 0 4 -4 4 -10z m741 -17 c-8 -15 -10 -15 -11 -2 0 17
10 32 18 25 2 -3 -1 -13 -7 -23z m2465 12 c29 -15 28 -15 -33 -15 -35 0 -63 4
-63 9 0 4 11 6 24 4 13 -3 27 0 30 6 9 14 8 14 42 -4z m652 1 c17 -1 32 -6 32
-11 -1 -11 -28 -11 -120 1 -55 7 -61 9 -35 15 17 4 44 4 60 1 17 -3 45 -6 63
-6z m542 10 c0 -2 -7 -7 -16 -10 -8 -3 -12 -2 -9 4 6 10 25 14 25 6z m-4995
-16 c4 -6 1 -17 -5 -25 -11 -13 1 -15 85 -15 54 0 96 -2 94 -4 -9 -8 -272 -12
-419 -6 l-155 6 136 2 c121 2 140 5 185 26 55 28 70 31 79 16z m793 -15 c-3
-3 -13 -2 -22 1 -14 5 -15 9 -4 15 13 8 36 -6 26 -16z m582 21 c0 -2 -8 -10
-17 -17 -16 -13 -17 -12 -4 4 13 16 21 21 21 13z m3810 -6 c-19 -13 -30 -13
-30 0 0 6 10 10 23 10 18 0 19 -2 7 -10z m-4889 -14 c-9 -11 -9 -16 1 -22 8
-5 3 -10 -17 -16 -42 -11 -57 8 -26 33 28 23 60 27 42 5z m2922 7 c-7 -2 -21
-2 -30 0 -10 3 -4 5 12 5 17 0 24 -2 18 -5z m1354 1 c-3 -3 -12 -4 -19 -1 -8
3 -5 6 6 6 11 1 17 -2 13 -5z m-1762 -14 c3 -5 1 -10 -4 -10 -6 0 -11 5 -11
10 0 6 2 10 4 10 3 0 8 -4 11 -10z m-1846 -4 c-12 -10 -59 -15 -59 -6 0 5 14
10 32 10 17 0 29 -2 27 -4z m162 -11 c0 -5 -14 -13 -30 -16 -17 -4 -28 -2 -25
2 3 5 13 9 22 10 14 0 13 2 -3 9 -17 8 -16 9 8 7 15 -1 28 -6 28 -12z m1961 5
c32 0 57 -4 54 -9 -5 -7 -111 -8 -191 -2 -30 3 -30 3 -5 11 14 5 38 7 54 4 16
-2 55 -4 88 -4z m212 -15 c4 -12 -3 -15 -32 -15 -20 0 -47 3 -59 6 -41 11 -24
24 31 24 39 0 55 -4 60 -15z m-3751 -2 c-29 -2 -77 -2 -105 0 -29 2 -6 3 52 3
58 0 81 -1 53 -3z m3112 -3 c3 -5 -3 -10 -14 -10 -11 0 -23 5 -26 10 -3 6 3
10 14 10 11 0 23 -4 26 -10z m1443 -7 c2 -9 -8 -13 -31 -13 -51 0 -97 11 -91
22 9 14 117 5 122 -9z m-2880 -15 c-3 -8 -25 -14 -54 -15 l-49 -2 40 14 c51
17 68 18 63 3z m2470 5 c-15 -2 -42 -2 -60 0 -18 2 -6 4 27 4 33 0 48 -2 33
-4z m-2352 -10 c-12 -12 -58 -15 -51 -3 3 5 18 10 32 10 15 0 23 -3 19 -7z
m1344 -18 c14 -16 10 -18 -14 -9 -9 3 -16 10 -16 15 0 14 16 11 30 -6z m-3142
-2 c-32 -2 -86 -2 -120 0 -35 2 -9 3 57 3 66 0 94 -1 63 -3z m1670 -10 c-15
-2 -42 -2 -60 0 -18 2 -6 4 27 4 33 0 48 -2 33 -4z m110 0 c-10 -2 -28 -2 -40
0 -13 2 -5 4 17 4 22 1 32 -1 23 -4z m1479 1 c-3 -3 -12 -4 -19 -1 -8 3 -5 6
6 6 11 1 17 -2 13 -5z m2400 -20 c-3 -3 -12 -4 -19 -1 -8 3 -5 6 6 6 11 1 17
-2 13 -5z m-3979 -11 c-21 -2 -55 -2 -75 0 -21 2 -4 4 37 4 41 0 58 -2 38 -4z"/>
<path d="M4742 7465 c-48 -76 -52 -87 -51 -139 1 -40 6 -60 18 -67 14 -9 14
-10 0 -6 -12 4 -15 -1 -13 -20 1 -14 9 -30 16 -35 10 -8 10 -11 1 -15 -21 -8
-15 -30 13 -52 15 -12 22 -21 15 -21 -6 0 -20 9 -32 21 -11 11 -24 18 -27 14
-4 -4 9 -20 28 -37 19 -17 50 -44 68 -60 18 -16 32 -23 32 -16 1 7 35 -23 75
-67 67 -71 91 -85 66 -37 -4 9 -11 35 -14 57 -6 38 0 23 37 -90 2 -5 3 -13 2
-16 0 -4 6 -15 15 -25 10 -11 20 -28 23 -39 3 -11 3 -2 1 20 -4 36 1 48 40
100 65 87 79 121 80 192 0 62 -1 66 -65 193 -16 32 -92 96 -232 197 l-44 31
-52 -83z m49 -392 l24 -28 -30 25 c-16 14 -32 26 -34 28 -2 1 0 2 6 2 5 0 20
-12 34 -27z m136 -35 c-3 -8 -6 -5 -6 6 -1 11 2 17 5 13 3 -3 4 -12 1 -19z
m-32 -44 c9 -15 12 -23 6 -20 -11 7 -35 46 -28 46 3 0 12 -12 22 -26z"/>
<path d="M3474 7315 c-30 -21 -51 -71 -59 -140 -3 -33 -12 -116 -20 -185 -22
-197 -23 -220 -14 -310 17 -164 140 -600 170 -600 5 0 9 -8 9 -18 0 -10 15
-26 35 -36 30 -16 39 -17 62 -7 20 9 23 15 14 20 -9 6 -10 11 -2 15 16 10 33
-4 26 -21 -4 -13 -3 -14 10 -3 8 7 15 8 15 2 0 -16 -27 -34 -34 -23 -7 11 -36
4 -36 -10 0 -4 6 -6 14 -3 10 4 14 -2 12 -25 -1 -16 2 -28 6 -25 4 3 8 0 8 -5
0 -6 9 -11 21 -11 11 0 18 -4 15 -9 -4 -5 2 -7 13 -4 10 3 22 0 25 -6 4 -6 17
-11 29 -11 18 0 19 -2 7 -10 -10 -7 -11 -10 -2 -10 7 0 15 7 18 15 5 12 8 12
20 0 8 -7 14 -20 14 -27 0 -10 3 -9 10 2 11 17 28 20 52 8 11 -5 22 -3 32 7 9
9 17 11 21 5 10 -16 44 -11 67 10 14 13 26 16 37 11 9 -5 22 -6 30 -3 7 2 16
0 20 -6 3 -5 20 -12 38 -15 17 -3 37 -8 42 -12 6 -3 11 -1 11 6 0 8 4 8 16 -1
8 -8 30 -15 47 -17 18 -2 43 -6 57 -8 14 -2 38 -4 53 -4 16 -1 26 -5 23 -9 -3
-4 8 -7 25 -6 16 1 29 -2 29 -7 0 -5 6 -9 13 -9 21 0 57 -44 63 -76 3 -16 11
-36 18 -44 19 -22 26 -49 16 -55 -6 -4 -10 -14 -10 -23 0 -11 3 -13 8 -5 5 8
11 8 24 -1 10 -7 15 -16 12 -19 -3 -3 3 -3 15 0 12 3 21 1 21 -5 0 -6 8 -12
18 -15 9 -2 -5 -7 -32 -12 -51 -8 -309 -1 -385 11 -35 6 -42 4 -36 -6 5 -8 3
-11 -6 -8 -8 3 -13 11 -11 17 1 7 -2 10 -8 6 -17 -11 -11 -24 15 -31 39 -10
30 -24 -15 -24 -22 0 -40 -3 -40 -7 0 -13 20 -39 20 -28 0 6 5 2 11 -8 5 -9 7
-22 4 -27 -3 -6 -1 -10 4 -10 6 0 11 -10 11 -22 0 -17 3 -19 12 -10 16 16 31
15 25 -2 -3 -8 1 -13 11 -12 9 0 17 -6 17 -14 0 -9 12 -16 30 -18 17 -2 35 -8
41 -13 6 -5 16 -4 24 4 10 10 12 9 7 -5 -4 -13 3 -17 36 -20 23 -2 43 -1 45 3
2 4 12 5 22 2 28 -7 190 34 230 59 26 15 30 22 19 29 -8 5 -25 9 -38 9 -31 0
-24 8 11 12 15 2 30 7 33 10 3 3 24 2 47 -4 22 -5 43 -7 45 -4 14 13 -15 74
-75 157 -114 158 -184 252 -231 307 l-46 54 -75 -7 c-97 -8 -187 6 -331 55
-129 43 -234 92 -321 152 -67 45 -78 61 -15 21 54 -34 207 -105 274 -127 52
-17 80 -15 67 6 -4 7 -2 8 4 4 6 -4 9 -13 6 -20 -3 -8 4 -16 18 -20 36 -9 45
-7 25 8 -15 12 -16 15 -2 26 13 11 14 10 10 -2 -4 -9 1 -18 9 -21 9 -4 16 -2
16 3 0 6 7 10 15 10 9 0 13 7 9 18 -2 9 1 7 7 -6 7 -13 18 -21 26 -18 7 3 13
1 13 -5 0 -6 4 -8 9 -4 5 3 13 0 17 -6 5 -8 9 -7 15 2 6 11 12 9 28 -5 11 -10
31 -18 45 -18 14 0 27 -7 30 -14 3 -9 21 -14 45 -14 l40 0 -57 82 c-31 45
-111 138 -177 207 -113 118 -279 323 -355 436 -18 28 -63 88 -100 135 -67 85
-226 318 -198 290 9 -8 44 -58 79 -110 35 -52 77 -112 93 -132 27 -33 31 -35
43 -20 12 15 13 14 9 -10 -3 -15 0 -30 5 -33 5 -4 9 -1 9 4 0 6 5 11 12 11 9
0 9 -3 0 -12 -14 -14 4 -52 20 -42 6 4 8 3 4 -4 -9 -16 38 -82 53 -73 7 4 11
12 9 17 -3 11 24 54 35 54 4 0 3 -9 -3 -20 -6 -11 -8 -20 -5 -20 4 0 -3 -13
-15 -30 -16 -23 -17 -28 -6 -24 12 5 16 0 14 -17 -2 -16 2 -23 10 -21 8 1 11
-2 7 -8 -3 -5 -3 -15 1 -21 4 -8 13 -4 24 12 15 19 21 21 34 10 13 -11 15 -10
11 8 -4 24 31 111 45 111 14 0 12 -16 -3 -32 -15 -14 -37 -53 -37 -63 0 -3 5
-3 12 1 8 5 9 2 5 -10 -4 -9 -3 -15 2 -11 20 11 17 -21 -3 -45 -20 -24 -21
-24 0 -7 25 21 31 21 31 3 0 -8 -3 -14 -6 -14 -3 1 -17 -4 -31 -11 l-25 -11
28 4 c20 2 25 0 18 -7 -16 -16 -14 -27 5 -27 8 0 12 -5 9 -11 -4 -6 3 -20 16
-32 15 -14 24 -17 27 -9 2 7 9 12 16 12 13 0 55 102 58 143 1 15 5 27 9 27 4
0 5 8 2 18 -5 21 40 126 50 116 4 -4 7 0 7 9 0 10 4 17 10 17 5 0 9 3 9 8 -1
4 -1 14 0 22 1 12 4 11 12 -3 9 -15 3 -34 -28 -94 -28 -56 -38 -88 -38 -124 0
-26 -3 -45 -7 -42 -5 2 -9 -4 -10 -14 -6 -67 -5 -93 4 -93 5 0 6 5 3 10 -3 6
-1 10 4 10 6 0 11 -3 11 -7 0 -5 12 -16 28 -26 25 -17 27 -23 25 -80 -2 -39 1
-57 6 -48 7 11 10 10 13 -5 2 -10 -3 -25 -12 -32 -8 -8 -10 -11 -4 -8 7 3 15
-5 18 -19 11 -42 31 -28 51 33 10 31 20 51 22 44 3 -7 0 -26 -6 -43 -14 -39 2
-73 30 -66 10 3 19 1 19 -3 0 -13 83 -5 88 8 2 7 8 12 14 12 20 0 83 102 71
114 -4 3 -1 6 5 6 6 0 9 7 5 17 -4 11 -3 14 5 9 7 -4 12 -2 12 4 0 6 5 8 11 4
6 -4 7 -9 2 -13 -5 -3 -10 -17 -10 -30 -1 -13 -6 -27 -12 -30 -17 -11 0 -56
25 -68 16 -7 22 -7 17 -1 -3 6 2 17 13 25 16 12 17 15 4 23 -8 5 -11 13 -6 17
4 4 13 1 20 -9 10 -14 41 -24 56 -18 18 7 39 7 35 0 -3 -5 -1 -20 5 -35 7 -17
7 -24 0 -20 -15 9 -12 -4 4 -21 8 -7 12 -22 9 -32 -3 -11 2 -22 10 -25 10 -4
13 0 10 12 -5 19 22 37 32 21 3 -5 12 -7 19 -4 24 9 7 130 -33 234 -67 176
-315 438 -524 553 -57 32 -57 32 -58 10 0 -15 -2 -15 -9 2 -20 49 -75 92 -155
120 -44 15 -154 57 -245 92 -296 115 -297 116 -336 88z m617 -419 c0 5 4 -2
10 -14 9 -25 5 -42 -12 -42 -5 0 -9 9 -9 21 0 11 -5 30 -11 42 -10 21 -10 21
5 3 9 -11 16 -16 17 -10z m-251 -60 c0 -2 -7 -7 -16 -10 -8 -3 -12 -2 -9 4 6
10 25 14 25 6z m221 -17 c12 -20 11 -36 -3 -36 -7 0 -22 -4 -33 -8 -14 -5 -16
-4 -7 3 8 5 11 18 7 35 -5 20 -3 25 10 23 9 -1 21 -9 26 -17z m-124 -4 c0 -8
-4 -12 -9 -9 -4 3 -8 9 -8 15 0 5 4 9 8 9 5 0 9 -7 9 -15z m117 -129 c9 12 15
14 20 6 4 -7 2 -12 -4 -12 -7 0 -10 -6 -7 -14 9 -24 -5 -27 -23 -5 -12 13 -16
28 -12 42 6 20 7 20 10 -6 3 -26 5 -27 16 -11z m164 -161 c-3 -3 -9 2 -12 12
-6 14 -5 15 5 6 7 -7 10 -15 7 -18z m486 -191 c3 -8 2 -12 -4 -9 -6 3 -10 10
-10 16 0 14 7 11 14 -7z m-259 -72 c-3 -3 -11 0 -18 7 -9 10 -8 11 6 5 10 -3
15 -9 12 -12z m-794 -29 c13 -16 12 -17 -3 -4 -10 7 -18 15 -18 17 0 8 8 3 21
-13z m450 -96 c-10 -9 -11 -8 -5 6 3 10 9 15 12 12 3 -3 0 -11 -7 -18z m-505
-82 c1 -8 -4 -11 -11 -8 -8 2 -11 11 -8 19 6 16 16 11 19 -11z m50 -10 c-1 -8
-6 -18 -11 -22 -4 -5 -5 -2 0 6 6 11 4 13 -8 8 -11 -4 -17 -1 -17 8 0 8 9 15
19 15 11 0 18 -6 17 -15z m857 -592 c-13 -2 -35 -2 -50 0 -16 2 -5 4 22 4 28
0 40 -2 28 -4z m57 -3 c12 -8 11 -10 -7 -10 -13 0 -23 5 -23 10 0 13 11 13 30
0z m-47 -91 c-6 -6 -21 -9 -34 -6 -22 4 -22 4 4 6 15 0 27 6 27 13 0 6 3 8 7
5 4 -4 2 -12 -4 -18z"/>
<path d="M4041 6814 c0 -11 3 -14 6 -6 3 7 2 16 -1 19 -3 4 -6 -2 -5 -13z"/>
<path d="M5551 7198 c-77 -12 -148 -53 -173 -101 -11 -22 -15 -36 -10 -33 16
10 39 -4 37 -22 -3 -24 -24 -70 -24 -54 -1 22 -21 3 -22 -21 0 -12 -3 -16 -6
-9 -9 23 -20 12 -15 -15 5 -25 3 -26 -10 -15 -12 9 -18 10 -23 2 -4 -6 -12 -9
-18 -7 -12 4 -67 -65 -67 -84 0 -7 8 -4 20 6 11 10 20 26 20 37 0 10 5 18 10
18 14 0 12 -13 -5 -36 -19 -25 -19 -35 0 -28 8 4 15 13 15 21 0 8 4 12 9 9 4
-3 16 3 26 14 10 12 13 20 7 20 -7 0 -12 8 -12 17 0 15 1 15 13 -2 13 -17 43
-13 32 5 -3 5 0 12 6 16 8 5 9 3 4 -5 -4 -8 4 -6 18 4 17 10 24 23 20 33 -4
14 -3 14 5 3 8 -11 19 -10 66 10 56 23 78 40 82 63 1 6 25 45 53 86 31 44 47
76 40 79 -6 2 -15 -3 -20 -10 -6 -9 -12 -10 -16 -4 -5 7 -27 8 -62 3z m-166
-237 c3 -5 1 -12 -5 -16 -5 -3 -10 1 -10 9 0 18 6 21 15 7z m-75 -75 c0 -3 -4
-8 -10 -11 -5 -3 -10 -1 -10 4 0 6 5 11 10 11 6 0 10 -2 10 -4z"/>
<path d="M5375 7020 c-3 -6 1 -7 9 -4 18 7 21 14 7 14 -6 0 -13 -4 -16 -10z"/>
<path d="M5520 6990 c-57 -21 -128 -66 -194 -125 -30 -27 -34 -34 -18 -32 11
0 19 4 16 8 -6 10 45 41 56 34 6 -4 7 1 3 11 -5 14 -2 16 23 10 16 -3 35 -8
43 -10 8 -1 17 -11 21 -21 5 -13 9 -15 14 -7 4 7 4 17 0 24 -5 7 -3 8 5 4 7
-5 10 -15 7 -23 -4 -10 -2 -13 8 -10 8 3 32 11 54 16 77 21 144 86 129 124 -9
24 -97 22 -167 -3z"/>
<path d="M4670 6918 c0 -6 8 -17 18 -24 14 -11 8 -11 -34 0 -42 11 -51 11 -51
0 0 -7 13 -18 29 -25 16 -6 31 -15 34 -20 3 -5 -16 0 -42 11 -26 11 -49 19
-51 17 -2 -3 11 -10 29 -18 51 -20 197 -112 203 -127 5 -15 8 -16 -85 44 -85
54 -186 105 -150 74 57 -48 112 -81 237 -144 73 -36 136 -66 139 -66 13 0 -8
54 -40 104 -52 81 -128 145 -211 176 -17 7 -25 6 -25 -2z"/>
<path d="M4940 6876 c0 -2 7 -9 15 -16 9 -7 15 -8 15 -2 0 5 -7 12 -15 16 -8
3 -15 4 -15 2z"/>
<path d="M4971 6835 c0 -5 6 -21 14 -35 8 -14 14 -20 14 -15 0 6 -6 21 -14 35
-8 14 -14 21 -14 15z"/>
<path d="M5256 6795 c-3 -8 -1 -15 4 -15 13 0 22 18 11 24 -5 3 -11 -1 -15 -9z"/>
<path d="M5197 6666 c-4 -10 -5 -21 -2 -24 9 -9 17 6 13 25 -3 17 -4 17 -11
-1z"/>
<path d="M5031 6630 c-1 -43 16 -107 31 -116 14 -9 2 78 -17 121 l-13 30 -1
-35z"/>
<path d="M5315 6586 c17 -13 41 -34 55 -46 l25 -22 -27 16 c-16 9 -39 23 -53
32 -14 9 -25 14 -25 10 0 -13 79 -57 109 -61 28 -4 30 -2 22 14 -11 20 -56 52
-77 55 -8 1 -20 8 -26 14 -7 7 -17 12 -22 12 -6 0 3 -11 19 -24z"/>
<path d="M4720 6301 c0 -5 5 -13 10 -16 6 -3 10 -2 10 4 0 5 -4 13 -10 16 -5
3 -10 2 -10 -4z"/>
<path d="M4556 6285 c4 -8 1 -15 -7 -15 -7 0 -10 -2 -7 -5 3 -3 16 -2 29 3
l23 9 -22 12 c-18 10 -21 9 -16 -4z"/>
<path d="M6020 6245 c-133 -14 -205 -33 -306 -80 -77 -35 -251 -160 -246 -177
4 -14 -19 -39 -30 -32 -5 3 -4 12 4 22 10 12 6 11 -17 -3 -62 -39 -106 -78
-121 -107 -21 -41 -26 -70 -11 -65 7 2 11 11 11 20 -1 9 4 13 13 10 8 -3 12
-12 9 -20 -3 -8 -2 -11 3 -8 6 3 14 -3 20 -12 9 -16 12 -16 21 -3 10 13 11 13
9 0 -4 -44 4 -38 16 11 16 65 60 145 93 167 13 8 22 10 22 4 0 -6 -8 -13 -19
-17 -20 -6 -75 -118 -85 -172 -3 -18 -8 -68 -11 -110 -5 -60 -3 -74 5 -60 10
15 14 16 27 5 14 -11 15 -10 9 9 -4 12 -2 24 4 28 7 4 9 18 6 34 -5 19 -4 22
4 11 7 -11 10 -5 10 27 0 23 6 48 13 55 8 7 12 18 10 24 -2 6 5 31 17 55 11
24 20 36 20 26 0 -11 6 -17 13 -14 6 2 12 12 12 22 0 10 8 19 18 21 16 2 16 0
-3 -31 -11 -18 -20 -39 -19 -46 0 -8 5 -4 11 8 12 25 38 38 38 20 1 -7 7 -25
15 -42 l14 -30 -5 40 c-3 35 -3 37 7 15 6 -14 12 -39 14 -56 3 -17 9 -43 14
-57 5 -14 7 -28 4 -31 -4 -3 -1 -6 6 -6 7 0 9 -10 6 -27 l-6 -28 15 25 c8 14
17 45 21 70 3 25 11 52 16 60 8 11 9 7 5 -15 -14 -71 -19 -215 -7 -215 6 0 11
5 11 11 0 5 5 7 10 4 12 -8 29 35 22 54 -3 9 -1 12 6 7 7 -4 12 -17 12 -29 1
-21 1 -21 12 -3 7 13 7 29 0 53 -6 19 -8 33 -6 30 9 -9 41 27 35 38 -3 6 1 3
11 -7 9 -10 21 -18 28 -18 7 0 9 -8 5 -19 -3 -11 -1 -22 4 -26 7 -4 8 1 4 12
-6 16 -5 16 10 5 9 -8 22 -10 28 -6 8 4 9 3 5 -4 -4 -7 -1 -12 8 -12 19 0 28
30 21 67 -6 26 -5 26 9 -5 13 -28 19 -32 38 -26 47 14 119 55 113 64 -4 6 1 7
11 3 12 -4 15 -3 10 5 -5 8 -2 10 9 6 9 -4 46 12 88 36 91 54 87 52 87 47 0
-10 -183 -116 -319 -185 -80 -41 -201 -108 -268 -150 -67 -43 -171 -104 -230
-138 -60 -34 -109 -67 -111 -75 -3 -19 178 -60 232 -53 29 5 37 3 31 -7 -5 -8
-4 -10 3 -5 7 4 17 16 23 27 9 19 9 19 -10 10 -33 -18 -48 -12 -22 10 23 19
25 19 43 2 11 -10 15 -19 9 -21 -6 -2 -8 -9 -5 -14 5 -7 2 -8 -6 -3 -8 5 -11
3 -8 -6 3 -8 13 -14 24 -15 10 -1 30 -4 44 -8 14 -3 45 -8 70 -11 58 -6 73 -9
85 -17 6 -3 37 -9 70 -14 45 -6 54 -9 35 -14 -14 -3 -50 -3 -80 2 -60 8 -90 3
-90 -15 0 -8 3 -8 12 1 14 14 52 16 43 2 -3 -5 -1 -10 4 -10 13 0 10 -22 -3
-31 -11 -9 3 -31 15 -24 5 3 6 -1 3 -9 -3 -9 -15 -16 -27 -16 -21 0 -15 -15 6
-15 7 0 11 -9 11 -18 -1 -10 1 -16 4 -13 7 7 32 -13 32 -26 0 -5 -4 -7 -8 -4
-4 2 -86 21 -181 40 -153 32 -261 65 -261 80 0 3 7 2 17 -1 12 -5 14 -3 9 8
-4 8 -1 6 7 -3 19 -23 71 -44 131 -53 35 -6 47 -5 42 4 -4 6 -2 11 3 11 6 0
11 -7 11 -15 0 -10 10 -15 30 -15 17 0 30 5 30 10 0 6 -5 10 -11 10 -6 0 -9 9
-6 20 3 11 1 20 -3 20 -13 0 -22 37 -15 60 3 11 11 20 17 20 6 0 9 -3 5 -6 -3
-3 0 -22 7 -42 7 -21 12 -51 12 -69 -1 -24 4 -33 20 -36 17 -3 20 0 16 21 -4
18 -1 23 8 17 9 -6 10 -3 1 13 -15 28 -14 89 2 95 6 2 -10 8 -38 12 -95 13
-210 34 -245 44 -36 11 -73 17 -168 28 -52 6 -53 5 -92 -36 -72 -76 -52 -132
76 -210 81 -49 187 -72 334 -72 138 1 272 10 266 20 -2 3 10 6 27 7 18 1 58 9
90 18 l58 18 -21 36 c-15 24 -16 32 -6 23 21 -18 21 3 0 23 -14 15 -14 16 3
13 24 -4 43 -16 43 -28 0 -6 -6 -7 -12 -3 -8 5 -7 0 2 -11 14 -17 13 -18 -4
-12 -17 7 -17 5 -5 -10 7 -10 14 -19 15 -21 3 -5 103 56 158 98 60 43 162 159
256 290 39 53 106 175 181 328 156 316 163 359 66 406 -37 18 -93 32 -188 46
-74 10 -182 31 -239 45 -115 27 -167 29 -340 10z m-353 -457 c-3 -8 -6 -5 -6
6 -1 11 2 17 5 13 3 -3 4 -12 1 -19z m428 -146 c-3 -3 -16 5 -28 17 l-22 23
28 -17 c15 -10 25 -20 22 -23z m166 -14 c11 -21 11 -22 -5 -9 -16 13 -18 13
-16 0 7 -47 -11 -52 -27 -8 -10 25 -9 29 1 19 10 -8 15 -7 20 5 7 20 13 19 27
-7z m-55 -29 c8 -14 -10 -11 -32 6 -18 13 -18 14 4 8 12 -3 25 -9 28 -14z
m-191 -144 c45 -9 58 -14 37 -14 -39 -1 -173 27 -186 39 -4 5 11 4 35 -2 24
-5 76 -16 114 -23z m250 -4 c-27 -11 -138 -20 -128 -10 7 7 46 12 128 17 l20
1 -20 -8z m-168 -93 c-3 -8 -6 -5 -6 6 -1 11 2 17 5 13 3 -3 4 -12 1 -19z m37
-26 c3 -5 -1 -9 -9 -9 -8 0 -12 4 -9 9 3 4 7 8 9 8 2 0 6 -4 9 -8z m-507 -164
c-3 -8 -6 -5 -6 6 -1 11 2 17 5 13 3 -3 4 -12 1 -19z m430 16 c-3 -3 -12 -4
-19 -1 -8 3 -5 6 6 6 11 1 17 -2 13 -5z m-370 -46 c-3 -8 -6 -5 -6 6 -1 11 2
17 5 13 3 -3 4 -12 1 -19z m-27 -11 c0 -11 -1 -18 -3 -16 -1 2 -8 11 -15 20
-9 13 -9 16 3 16 8 0 15 -9 15 -20z m314 -16 c-6 -6 -24 19 -24 34 1 6 7 1 15
-9 8 -11 12 -22 9 -25z m202 -24 c8 3 14 0 14 -7 0 -6 -4 -9 -9 -5 -6 3 -18
-4 -29 -15 -14 -16 -19 -17 -19 -5 0 8 4 15 9 15 4 0 8 8 9 18 0 9 3 12 5 5 3
-7 12 -9 20 -6z m-236 -72 c7 -9 8 -15 2 -15 -5 0 -12 7 -16 15 -3 8 -4 15 -2
15 2 0 9 -7 16 -15z m56 -3 c-10 -2 -22 0 -28 6 -6 6 0 7 19 4 21 -5 23 -7 9
-10z"/>
<path d="M3630 5986 c0 -3 9 -10 20 -16 11 -6 20 -8 20 -6 0 3 -9 10 -20 16
-11 6 -20 8 -20 6z"/>
<path d="M5511 5844 c0 -11 3 -14 6 -6 3 7 2 16 -1 19 -3 4 -6 -2 -5 -13z"/>
<path d="M4161 5761 c-7 -5 -10 -14 -7 -20 4 -6 12 -8 18 -5 6 4 8 -1 3 -15
-5 -15 -3 -19 8 -16 14 6 20 35 6 35 -4 0 -9 7 -11 15 -2 10 -8 12 -17 6z"/>
<path d="M5820 5655 c0 -8 2 -15 4 -15 2 0 6 7 10 15 3 8 1 15 -4 15 -6 0 -10
-7 -10 -15z"/>
<path d="M4030 5636 c0 -2 7 -7 16 -10 8 -3 12 -2 9 4 -6 10 -25 14 -25 6z"/>
<path d="M5361 5614 c0 -11 3 -14 6 -6 3 7 2 16 -1 19 -3 4 -6 -2 -5 -13z"/>
<path d="M4918 5321 c30 -44 50 -45 27 -2 -12 24 -33 41 -51 41 -2 0 9 -17 24
-39z"/>
<path d="M5844 5135 c3 -23 12 -26 13 -5 1 11 -2 20 -7 20 -4 0 -7 -7 -6 -15z"/>
<path d="M4992 4858 c0 -31 1 -31 9 -9 6 14 6 28 1 33 -5 5 -9 -5 -10 -24z"/>
<path d="M5061 4294 c0 -11 3 -14 6 -6 3 7 2 16 -1 19 -3 4 -6 -2 -5 -13z"/>
<path d="M5090 4271 c0 -29 15 -33 16 -5 1 13 -2 24 -7 24 -5 0 -9 -9 -9 -19z"/>
<path d="M5062 4230 c0 -14 2 -19 5 -12 2 6 2 18 0 25 -3 6 -5 1 -5 -13z"/>
<path d="M5063 4123 c1 -29 4 -47 8 -40 4 6 3 30 -1 52 -8 39 -8 39 -7 -12z"/>
<path d="M4904 4133 c-3 -10 -10 -29 -14 -43 -17 -50 -20 -117 -6 -117 7 0 18
9 25 19 6 10 7 18 2 18 -5 0 -12 -6 -14 -12 -3 -7 -6 8 -6 35 -1 48 14 65 22
25 2 -13 4 3 3 34 -1 62 -3 69 -12 41z"/>
<path d="M4871 4104 c0 -11 3 -14 6 -6 3 7 2 16 -1 19 -3 4 -6 -2 -5 -13z"/>
<path d="M5090 4045 c0 -27 3 -45 7 -41 7 7 5 77 -2 85 -3 2 -5 -17 -5 -44z"/>
<path d="M4660 4064 c0 -8 5 -12 10 -9 6 4 8 11 5 16 -9 14 -15 11 -15 -7z"/>
<path d="M5130 4042 c0 -18 5 -32 10 -32 6 0 8 12 6 26 -7 39 -16 42 -16 6z"/>
<path d="M4650 4018 c0 -19 2 -20 10 -8 13 19 13 30 0 30 -5 0 -10 -10 -10
-22z"/>
<path d="M5251 4018 c-1 -16 4 -28 9 -28 12 0 12 8 0 35 -8 18 -9 17 -9 -7z"/>
<path d="M4850 4019 c0 -5 5 -7 10 -4 6 3 10 8 10 11 0 2 -4 4 -10 4 -5 0 -10
-5 -10 -11z"/>
<path d="M4629 4013 c0 -5 -2 -16 -4 -26 -2 -9 0 -15 5 -12 5 3 11 -1 13 -7 3
-8 6 -6 6 5 1 9 -3 17 -9 17 -5 0 -7 7 -4 15 4 8 3 15 0 15 -3 0 -6 -3 -7 -7z"/>
<path d="M4771 3992 c-1 -7 -5 -10 -11 -7 -5 3 -10 -1 -10 -9 0 -8 5 -18 10
-21 12 -7 24 19 17 37 -4 10 -6 10 -6 0z"/>
<path d="M4792 3969 c-5 -13 -7 -32 -3 -44 4 -15 7 -10 12 20 8 46 3 58 -9 24z"/>
<path d="M4816 3964 c-9 -22 -7 -74 2 -74 11 0 34 58 29 72 -3 8 -6 7 -6 -4
-1 -9 -6 -20 -12 -24 -9 -5 -10 1 -5 20 7 28 2 36 -8 10z"/>
<path d="M5251 3958 c1 -18 2 -19 6 -5 2 9 9 14 15 11 7 -4 8 -2 4 4 -12 20
-26 13 -25 -10z"/>
<path d="M4711 3954 c0 -11 3 -14 6 -6 3 7 2 16 -1 19 -3 4 -6 -2 -5 -13z"/>
<path d="M4601 3934 c-12 -27 -11 -28 4 -12 10 9 16 21 13 28 -2 7 -10 -1 -17
-16z"/>
<path d="M4730 3938 c0 -19 2 -20 10 -8 13 19 13 30 0 30 -5 0 -10 -10 -10
-22z"/>
<path d="M4870 3950 c0 -5 5 -10 10 -10 6 0 10 5 10 10 0 6 -4 10 -10 10 -5 0
-10 -4 -10 -10z"/>
<path d="M5182 3925 c0 -16 2 -22 5 -12 2 9 2 23 0 30 -3 6 -5 -1 -5 -18z"/>
<path d="M5273 3915 c3 -22 9 -55 13 -74 5 -25 4 -32 -4 -27 -8 5 -12 -1 -12
-15 0 -18 2 -19 15 -9 13 11 16 8 21 -19 7 -31 24 -44 24 -17 0 8 3 22 7 32 4
12 3 15 -5 10 -17 -10 -15 16 3 40 14 18 14 17 15 -14 0 -18 4 -31 9 -28 5 3
7 16 3 28 -3 14 -2 19 6 14 7 -4 12 -3 12 1 0 5 -9 14 -20 21 -11 7 -20 20
-21 30 -1 11 -4 9 -9 -8 l-8 -25 -1 24 c-1 24 -1 24 -16 5 -14 -18 -14 -18
-15 11 0 17 -5 37 -11 45 -8 11 -9 5 -6 -25z m47 -76 c0 -6 -4 -7 -10 -4 -5 3
-10 11 -10 16 0 6 5 7 10 4 6 -3 10 -11 10 -16z"/>
<path d="M5368 3911 c-2 -25 1 -42 8 -45 8 -3 10 8 7 37 -7 55 -10 56 -15 8z"/>
<path d="M4667 3911 c-4 -17 -3 -21 5 -13 5 5 8 16 6 23 -3 8 -7 3 -11 -10z"/>
<path d="M4756 3921 c-4 -7 -5 -15 -2 -18 9 -9 19 4 14 18 -4 11 -6 11 -12 0z"/>
<path d="M4571 3904 c0 -11 3 -14 6 -6 3 7 2 16 -1 19 -3 4 -6 -2 -5 -13z"/>
<path d="M5161 3904 c0 -11 3 -14 6 -6 3 7 2 16 -1 19 -3 4 -6 -2 -5 -13z"/>
<path d="M5251 3904 c0 -11 3 -14 6 -6 3 7 2 16 -1 19 -3 4 -6 -2 -5 -13z"/>
<path d="M4600 3889 c0 -5 5 -7 10 -4 6 3 10 8 10 11 0 2 -4 4 -10 4 -5 0 -10
-5 -10 -11z"/>
<path d="M4628 3881 c-10 -10 -14 -22 -9 -29 5 -9 11 -5 21 13 16 31 11 38
-12 16z"/>
<path d="M5203 3825 c0 -22 2 -30 4 -17 2 12 2 30 0 40 -3 9 -5 -1 -4 -23z"/>
<path d="M4602 3830 c0 -14 2 -19 5 -12 2 6 2 18 0 25 -3 6 -5 1 -5 -13z"/>
<path d="M4840 3834 c0 -8 5 -12 10 -9 6 4 8 11 5 16 -9 14 -15 11 -15 -7z"/>
<path d="M5532 3820 c0 -14 2 -19 5 -12 2 6 2 18 0 25 -3 6 -5 1 -5 -13z"/>
<path d="M5570 3763 c0 -41 3 -54 10 -43 5 8 10 23 10 33 0 9 5 17 10 17 6 0
10 5 10 11 0 5 -5 7 -11 3 -8 -4 -9 0 -4 15 5 15 2 21 -9 21 -13 0 -16 -12
-16 -57z"/>
<path d="M4711 3794 c0 -11 3 -14 6 -6 3 7 2 16 -1 19 -3 4 -6 -2 -5 -13z"/>
<path d="M5215 3781 c-3 -6 -4 -11 -1 -11 3 0 2 -11 -3 -23 -5 -13 -6 -30 -1
-37 5 -8 10 2 15 29 7 43 3 62 -10 42z"/>
<path d="M5542 3770 c0 -14 2 -19 5 -12 2 6 2 18 0 25 -3 6 -5 1 -5 -13z"/>
<path d="M4597 3773 c-4 -3 -7 -11 -7 -17 0 -6 5 -5 12 2 6 6 9 14 7 17 -3 3
-9 2 -12 -2z"/>
<path d="M4425 3748 c-4 -13 -9 -27 -10 -33 -2 -5 -4 -12 -5 -15 -7 -16 -6
-69 1 -64 5 3 9 16 9 30 0 14 4 23 8 20 5 -3 9 15 9 39 0 25 -1 45 -3 45 -1 0
-5 -10 -9 -22z"/>
<path d="M5680 3718 c0 -9 -6 -19 -12 -21 -10 -4 -10 -6 0 -6 14 -1 28 26 18
36 -3 4 -6 -1 -6 -9z"/>
<path d="M4700 3711 c0 -5 5 -13 10 -16 6 -3 10 -2 10 4 0 5 -4 13 -10 16 -5
3 -10 2 -10 -4z"/>
<path d="M5485 3680 c-3 -5 -1 -10 4 -10 6 0 11 5 11 10 0 6 -2 10 -4 10 -3 0
-8 -4 -11 -10z"/>
<path d="M5690 3686 c0 -2 7 -17 15 -32 11 -21 15 -24 15 -11 0 10 5 15 10 12
6 -3 10 -1 10 4 0 6 -7 11 -15 11 -8 0 -15 5 -15 10 0 6 -4 10 -10 10 -5 0
-10 -2 -10 -4z"/>
<path d="M4706 3654 c-4 -9 -4 -19 -1 -22 2 -3 7 3 11 12 4 9 4 19 1 22 -2 3
-7 -3 -11 -12z"/>
<path d="M5643 3621 c0 -11 5 -18 9 -15 4 3 5 11 1 19 -7 21 -12 19 -10 -4z"/>
<path d="M5672 3595 c-1 -16 -5 -41 -8 -55 -5 -19 -4 -22 5 -14 7 7 11 29 8
55 -2 30 -4 34 -5 14z"/>
<path d="M5701 3574 c0 -11 3 -14 6 -6 3 7 2 16 -1 19 -3 4 -6 -2 -5 -13z"/>
<path d="M5682 3525 c-12 -26 -7 -55 10 -55 6 0 8 -14 5 -35 -3 -19 -1 -37 5
-41 5 -3 7 -16 4 -28 -5 -20 -5 -21 10 -2 9 13 11 23 4 30 -14 14 -13 49 2 64
9 9 9 12 0 12 -7 0 -12 7 -12 15 0 9 6 12 15 9 11 -5 13 -2 9 9 -3 9 -12 13
-21 10 -12 -5 -14 -1 -8 15 9 30 -9 28 -23 -3z"/>
<path d="M5751 3514 c0 -11 3 -14 6 -6 3 7 2 16 -1 19 -3 4 -6 -2 -5 -13z"/>
<path d="M5862 3514 c-7 -8 -10 -19 -6 -25 4 -6 1 -15 -5 -19 -9 -5 -8 -10 4
-20 13 -10 15 -9 15 8 0 12 8 25 18 31 15 9 15 12 2 25 -13 13 -17 13 -28 0z"/>
<path d="M5750 3465 c0 -33 15 -33 16 0 1 14 -2 25 -7 25 -5 0 -9 -11 -9 -25z"/>
<path d="M4216 3447 c-3 -12 -5 -33 -5 -47 1 -18 3 -20 6 -7 3 11 11 16 19 13
9 -4 14 2 14 15 0 13 -4 18 -12 13 -8 -5 -9 -2 -5 9 3 9 2 19 -2 22 -5 2 -11
-5 -15 -18z"/>
<path d="M5667 3445 c-4 -8 -2 -17 3 -20 6 -4 10 3 10 14 0 25 -6 27 -13 6z"/>
<path d="M5824 3436 c-16 -18 -24 -46 -13 -46 6 0 13 9 16 20 3 11 9 17 14 14
5 -3 9 -1 9 5 0 16 -14 20 -26 7z"/>
<path d="M5642 3420 c0 -14 2 -19 5 -12 2 6 2 18 0 25 -3 6 -5 1 -5 -13z"/>
<path d="M5720 3430 c0 -5 5 -10 10 -10 6 0 10 5 10 10 0 6 -4 10 -10 10 -5 0
-10 -4 -10 -10z"/>
<path d="M5772 3370 c0 -14 2 -19 5 -12 2 6 2 18 0 25 -3 6 -5 1 -5 -13z"/>
<path d="M5675 3360 c3 -5 8 -10 11 -10 2 0 4 5 4 10 0 6 -5 10 -11 10 -5 0
-7 -4 -4 -10z"/>
<path d="M4187 3339 c-10 -11 -16 -23 -13 -27 3 -3 6 -2 6 3 0 4 6 2 14 -4 10
-9 16 -8 26 4 8 9 8 15 2 15 -6 0 -12 7 -14 15 -2 13 -6 12 -21 -6z m23 -19
c0 -5 -2 -10 -4 -10 -3 0 -8 5 -11 10 -3 6 -1 10 4 10 6 0 11 -4 11 -10z"/>
<path d="M5715 3320 c-4 -11 -10 -18 -15 -15 -5 3 -11 1 -14 -4 -4 -5 2 -12
13 -16 11 -3 22 -11 24 -18 2 -7 2 -2 0 11 -2 15 2 22 12 22 8 0 15 -5 15 -12
0 -6 3 -8 7 -5 3 4 -1 15 -10 25 -10 10 -14 22 -10 25 3 4 1 7 -5 7 -6 0 -14
-9 -17 -20z"/>
<path d="M5666 3315 c-9 -26 -7 -32 5 -12 6 10 9 21 6 23 -2 3 -7 -2 -11 -11z"/>
<path d="M5671 3214 c0 -11 3 -14 6 -6 3 7 2 16 -1 19 -3 4 -6 -2 -5 -13z"/>
<path d="M5645 3189 c-4 -6 -5 -12 -2 -15 2 -3 7 2 10 11 7 17 1 20 -8 4z"/>
<path d="M5545 3264 c9 -9 19 -13 23 -10 3 4 0 11 -8 16 -24 15 -33 11 -15 -6z"/>
<path d="M4323 3245 c5 -37 17 -42 17 -7 0 18 -5 32 -10 32 -6 0 -9 -11 -7
-25z"/>
<path d="M4411 3224 c0 -11 3 -14 6 -6 3 7 2 16 -1 19 -3 4 -6 -2 -5 -13z"/>
<path d="M3216 9743 c-6 -14 -5 -15 5 -6 7 7 10 15 7 18 -3 3 -9 -2 -12 -12z"/>
<path d="M2890 8769 c0 -5 5 -7 10 -4 6 3 10 8 10 11 0 2 -4 4 -10 4 -5 0 -10
-5 -10 -11z"/>
<path d="M6430 2660 c0 -5 5 -10 11 -10 5 0 7 5 4 10 -3 6 -8 10 -11 10 -2 0
-4 -4 -4 -10z"/>
<path d="M7493 2593 c9 -2 25 -2 35 0 9 3 1 5 -18 5 -19 0 -27 -2 -17 -5z"/>
<path d="M2490 2443 c0 -38 18 -43 162 -43 98 0 149 4 173 14 65 28 41 36
-104 36 -76 0 -159 3 -185 6 -41 6 -46 5 -46 -13z"/>
<path d="M3153 2442 c-193 -2 -242 -9 -197 -26 9 -3 98 -6 198 -6 141 0 187 3
202 14 10 8 17 16 14 18 -3 2 -101 2 -217 0z"/>
<path d="M3460 2426 c0 -22 62 -28 237 -24 126 2 155 6 169 20 16 16 3 17
-195 18 -179 0 -211 -2 -211 -14z"/>
<path d="M6580 2430 c20 -13 330 -13 330 0 0 6 -64 10 -172 10 -116 0 -168 -4
-158 -10z"/>
<path d="M827 2318 c-15 -5 -66 -34 -113 -64 -88 -55 -165 -88 -225 -98 -19
-3 -92 -15 -164 -26 -199 -32 -247 -40 -287 -52 l-38 -11 0 -146 c0 -141 1
-147 24 -168 13 -13 31 -23 40 -23 9 0 16 -6 16 -12 0 -9 4 -8 10 2 9 13 10
13 10 0 0 -27 -12 -60 -20 -55 -4 3 -23 -6 -41 -18 l-34 -23 -3 -812 -2 -812
910 0 910 0 -5 84 c-4 54 -2 87 5 91 5 3 10 21 10 39 0 63 106 131 237 151 23
3 57 8 75 11 93 13 345 16 486 5 87 -7 283 -14 437 -15 154 -2 291 -6 305 -10
25 -6 76 -11 205 -21 81 -5 312 9 470 30 124 17 308 24 695 30 146 2 276 6
290 9 14 3 90 15 170 26 80 10 161 22 180 25 38 6 110 17 230 34 41 6 83 14
93 17 9 3 27 6 40 8 12 1 32 8 45 15 12 6 22 8 22 4 0 -4 7 0 14 10 8 10 17
18 20 18 3 -1 5 2 4 7 -2 4 -6 6 -10 5 -5 -2 -8 4 -8 12 0 27 -43 44 -121 47
-43 2 -75 6 -72 11 2 4 -6 7 -19 7 -28 0 -78 21 -78 33 0 5 -5 5 -10 2 -10 -6
-59 25 -96 62 -16 17 -15 18 17 26 79 18 742 29 1884 30 671 1 1342 -2 1490
-6 543 -17 988 41 1075 140 19 21 30 45 30 64 0 35 -36 107 -82 165 -116 146
-197 239 -267 309 -45 44 -81 85 -81 92 0 22 42 35 176 54 83 11 149 26 174
39 60 31 70 59 70 200 l0 121 -67 -5 c-38 -3 -108 -8 -158 -11 -49 -3 -916 -6
-1925 -7 l-1835 -1 -50 23 c-50 23 -50 23 -665 32 -689 10 -776 8 -872 -22
-66 -20 -83 -21 -1150 -22 -851 0 -1161 3 -1448 16 -505 22 -586 28 -575 47 4
5 1 9 -6 9 -7 0 -9 10 -7 25 3 14 2 25 -2 25 -4 0 -7 11 -7 24 0 24 -60 99
-73 91 -8 -5 -32 36 -29 51 5 29 -5 42 -48 57 -53 19 -132 21 -176 5z"/>
<path d="M4445 2324 c-27 -3 -167 -8 -310 -12 -249 -7 -260 -8 -264 -27 -3
-19 -3 -19 16 -2 17 15 41 17 171 17 83 0 279 -7 436 -15 255 -14 304 -14 487
0 112 8 217 15 233 15 22 0 27 3 19 11 -11 11 -678 22 -788 13z"/>
<path d="M9745 391 c-3 -2 -69 -5 -147 -6 -143 -3 -195 -9 -233 -25 -47 -21
-119 -41 -131 -36 -7 3 -16 1 -19 -4 -3 -5 -20 -9 -38 -9 -17 -1 -40 -2 -49
-2 -10 0 -18 -5 -18 -10 0 -6 -6 -7 -12 -3 -7 3 1 -7 17 -24 17 -16 32 -28 34
-26 2 2 26 -6 54 -16 37 -14 54 -17 64 -9 9 8 13 8 13 0 0 -7 11 -8 32 -4 22
4 29 3 24 -5 -4 -7 -1 -12 8 -12 8 0 16 6 19 13 3 9 7 9 18 0 8 -7 24 -12 34
-11 27 1 49 -5 57 -17 4 -5 12 -11 18 -11 5 -1 14 -2 19 -3 5 0 11 -11 13 -23
2 -15 10 -23 23 -24 80 -3 90 -5 70 -13 -11 -5 -24 -6 -30 -3 -5 3 -4 -1 3
-10 8 -10 9 -19 3 -22 -5 -3 -12 0 -15 6 -3 10 -9 8 -19 -5 -8 -9 -21 -17 -29
-17 -9 0 -21 -7 -28 -15 -7 -9 -19 -14 -27 -11 -7 3 -13 2 -13 -3 0 -4 -10
-13 -22 -19 -17 -8 85 -11 390 -11 l412 -1 0 34 c0 38 -19 63 -56 72 -13 3
-22 10 -19 14 3 5 -3 9 -12 10 -59 3 -73 6 -69 16 3 7 -9 14 -25 18 -17 3 -29
12 -29 21 0 8 -7 15 -15 15 -8 0 -17 15 -21 38 -11 61 -51 110 -104 131 -14 5
-34 13 -45 17 -21 8 -94 12 -100 5z m232 -153 c-3 -8 -6 -5 -6 6 -1 11 2 17 5
13 3 -3 4 -12 1 -19z"/>
</g>
</svg>
