<?xml version="1.0" encoding="UTF-8"?>
<svg version="1.1" viewBox="0 0 2048 1205" width="1280" height="1280" xmlns="http://www.w3.org/2000/svg">
<path transform="translate(1431,409)" d="m0 0 3 3 12 21 13 24 40 72 6 2 77 15 53 10-4 8-1 5-12 13-61 65-11 12-2 4v13l14 113v7l-9-2-33-15-16-8-16-7-16-8-26-12-10-1-12 5-36 17-28 13-34 16-16 2 1-14 15-121-1-4-9-9-7-8-8-8-7-8-8-8-7-8-8-8-7-8-8-8-7-8-7-7-7-8-2-5 130-25 6-2 14-26 13-23 13-24 13-23z" fill="#FF6F00"/>
<path transform="translate(616,409)" d="m0 0 3 3 14 25 16 29 13 24 13 23 9 16 5 2 130 25v3l-3 4-1 6-46 49-14 15-16 17-8 9-3 6 1 13 14 112v6l-10-2-29-14-18-8-14-7-28-13-18-8-3-1h-7l-24 11-34 16-28 13-26 12h-9l-4 1 1-15 14-112v-12l-12-12-7-8-8-8-7-8-8-8-7-8-7-7-7-8-8-8-7-8-15-16 1-2 135-26 13-23 14-26 25-45z" fill="#FF6F00"/>
<path transform="translate(208,410)" d="m0 0 3 1 64 116 2 3 124 24 11 2-2 5-2 3-1 5-7 8-8 8-7 8-8 8-7 8-7 7-7 8-8 8-7 8-8 8-7 8-4 5-1 3v11l14 111v10l-9-2-36-17-28-13-36-17-10-4h-7l-12 5-38 18-62 29h-10l-4 1 2-20 14-112v-6l-16-17-60-64-13-14-4-5v-2l131-25h5l2-5 15-28 13-23 13-24 13-23z" fill="#FF6F00"/>
<path transform="translate(1024,409)" d="m0 0 3 4 12 21 13 24 13 23 14 26 10 18 2 5 27 5 109 21-1 4-2 2-2 8-12 12-7 8-8 8-7 8-7 7-7 8-9 9-7 8-7 7-7 8-6 7-2 4v9l14 112v11l-9-2-38-18-30-14-34-16-8-3h-7l-16 7-22 10-16 8-58 27h-9l-5 1 8-66 8-65v-7l-12-13-16-17-60-64-5-7 6-2 130-25 15-28 25-45 16-29 10-18z" fill="#FF6F00"/>
<path transform="translate(1839,409)" d="m0 0 4 5 48 87 15 27v2l27 5 109 21v3l-3 3-2 8-9 9-7 8-8 8-7 8-8 8-7 8-7 7-7 8-8 8-7 8-7 7-4 8 1 15 14 113v3l-7-1-24-11-68-32-18-8-3-1h-7l-20 9-34 16-58 27h-9l-5 1 16-129v-9l-9-10-16-17-60-64-8-9 1-2 135-26 13-24 13-23 14-26 25-45z" fill="#FF6F00"/>
<path transform="translate(208,737)" d="m0 0 6 2 38 18 30 14 36 17 13 6-3 1-38-18-28-13-36-17-10-4h-7l-12 5-38 18-62 29h-6l-2-2 27-13 28-13 34-16z" fill="#FF6F00"/>
<path transform="translate(1023,737)" d="m0 0 6 2 36 17 28 13 53 25-3 1-40-19-30-14-34-16-8-3h-7l-16 7-22 10-16 8-58 27-8-1 4-3 34-16 64-30z" fill="#FF6F00"/>
<path transform="translate(616,737)" d="m0 0 10 4 27 13 28 13 34 16 24 11-3 1-28-13-22-10-14-7-28-13-18-8-3-1h-7l-24 11-34 16-28 13-26 12-7-1 4-3 29-14 28-13 34-16z" fill="#FF6F00"/>
<path transform="translate(1838,737)" d="m0 0 6 2 34 16 28 13 53 25-3 1-27-13-26-12-36-17-18-8-3-1h-7l-20 9-34 16-58 27-7-1 1-2 28-13 38-18 28-13z" fill="#FF6F00"/>
<path transform="translate(1431,737)" d="m0 0 6 2 27 13 28 13 21 10-3 1-26-12-16-8-26-12-10-1-12 5-36 17-28 13-34 16-8 1-2-2 29-14 28-13 36-17z" fill="#FF6F00"/>
<path transform="translate(1629,563)" d="m0 0 2 1-1 5-12 13-61 65-11 12-2 4-1 11h-1l-1-8v-9l8-8 7-8 8-8 7-8 8-8 7-8 8-8 7-8 8-8 7-8 8-8z" fill="#FF6F00"/>
<path transform="translate(1222,563)" d="m0 0h1l-1 7-12 12-7 8-8 8-7 8-7 7-7 8-9 9-7 8-7 7-7 8-6 7-2 4-1 7h-1l-1-13 7-8 8-8 7-8 8-8 7-8 8-8 7-8 8-8 7-8 7-7 7-8z" fill="#FF6F00"/>
<path transform="translate(814,563)" d="m0 0 2 4-9 11-13 13-7 8-8 8-7 8-7 7-7 8-9 9-7 8-7 7-6 9-3 4-1-9 76-81z" fill="#FF6F00"/>
<path transform="translate(406,564)" d="m0 0h2l-1 5-7 8-8 8-7 8-8 8-7 8-7 7-7 8-8 8-7 8-8 8-7 8-4 5-2 11h-1l-1-15 12-12 7-8 8-8 7-8 8-8 7-8 8-8 7-8 8-8 7-8z" fill="#FF6F00"/>
<path transform="translate(2037,563)" d="m0 0h1l-1 7-9 9-7 8-8 8-7 8-8 8-7 8-7 7-7 8-8 8-7 8-7 7-6 12-1-11 12-13 31-33 14-15 30-32z" fill="#FF6F00"/>
</svg>
